HIERARCHY
ROOT hip
{
	OFFSET 0.000000 0.000000 0.000000 
	CHANNELS 6 Xposition Yposition Zposition Xrotation Zrotation Yrotation
	JOINT abdomen
	{
		OFFSET 0.000000 3.402643 0.000000 
		CHANNELS 3 Xrotation Zrotation Yrotation
		JOINT chest
		{
			OFFSET 0.000000 8.438565 -0.680529 
			CHANNELS 3 Xrotation Zrotation Yrotation
			JOINT neck
			{
				OFFSET 0.000000 10.207942 -0.272212 
				CHANNELS 3 Xrotation Zrotation Yrotation
				JOINT head
				{
					OFFSET 0.000000 3.130431 0.000000 
					CHANNELS 3 Xrotation Zrotation Yrotation
					End Site
					{
						OFFSET 0.000000 3.130435 0.000000 
					}
				}
			}
			JOINT lCollar
			{
				OFFSET 3.470700 6.669187 -0.816635 
				CHANNELS 3 Yrotation Zrotation Xrotation
				JOINT lShldr
				{
					OFFSET 3.198488 0.000000 0.000000 
					CHANNELS 3 Zrotation Yrotation Xrotation
					JOINT lForeArm
					{
						OFFSET 10.139888 0.000000 0.000000 
						CHANNELS 3 Yrotation Zrotation Xrotation
						JOINT lHand
						{
							OFFSET 8.370511 0.000000 0.000000 
							CHANNELS 3 Zrotation Yrotation Xrotation
							End Site
							{
								OFFSET 4.083176 0.000000 0.000000 
							}
						}
					}
				}
			}
			JOINT rCollar
			{
				OFFSET -3.470700 6.669187 -0.816635 
				CHANNELS 3 Yrotation Zrotation Xrotation
				JOINT rShldr
				{
					OFFSET -3.198488 0.000000 0.000000 
					CHANNELS 3 Zrotation Yrotation Xrotation
					JOINT rForeArm
					{
						OFFSET -10.139888 0.000000 0.000000 
						CHANNELS 3 Yrotation Zrotation Xrotation
						JOINT rHand
						{
							OFFSET -8.370511 0.000000 0.000000 
							CHANNELS 3 Zrotation Yrotation Xrotation
							End Site
							{
								OFFSET -4.083176 0.000000 0.000000 
							}
						}
					}
				}
			}
		}
	}
	JOINT lThigh
	{
		OFFSET 5.308129 -1.633274 1.361059 
		CHANNELS 3 Xrotation Zrotation Yrotation
		JOINT lShin
		{
			OFFSET -2.041588 -20.007561 0.000000 
			CHANNELS 3 Xrotation Zrotation Yrotation
			JOINT lFoot
			{
				OFFSET 0.000000 -19.190928 -1.224953 
				CHANNELS 3 Xrotation Yrotation Zrotation
				End Site
				{
					OFFSET 0.000000 -2.449906 4.627600 
				}
			}
		}
	}
	JOINT rThigh
	{
		OFFSET -5.308129 -1.633274 1.361059 
		CHANNELS 3 Xrotation Zrotation Yrotation
		JOINT rShin
		{
			OFFSET 2.041588 -20.007561 0.000000 
			CHANNELS 3 Xrotation Zrotation Yrotation
			JOINT rFoot
			{
				OFFSET 0.000000 -19.190928 -1.224953 
				CHANNELS 3 Xrotation Yrotation Zrotation
				End Site
				{
					OFFSET 0.000000 -2.449906 4.627600 
				}
			}
		}
	}
}
MOTION
Frames: 14
Frame Time: 0.016667
-3.976711 30.216045 56.315758 171.467209 -50.577042 -20.284634 60.075733 -0.397055 2.947439 6.288164 -5.449187 0.370122 -17.279846 -10.396139 3.016773 1.233640 -18.501518 14.069053 -21.025522 2.019761 0.097423 1.483736 -48.875793 -18.812212 -139.264404 5.000000 43.265892 -6.551051 -9.916211 45.000000 12.796371 -11.169418 0.519319 52.820972 37.672123 4.402971 136.902420 -5.000000 7.887397 5.709298 16.435640 45.000000 -95.831802 21.621981 -26.566008 54.022419 -4.132608 -6.182037 -16.746855 10.204362 -5.929205 -38.979694 -0.279762 -38.875824 119.561287 -9.548946 14.377502 -4.835740 -5.057350 18.871628 
-3.727844 29.017183 57.989361 179.016083 -50.475609 -24.116232 59.238613 -0.475953 2.704572 6.155566 -5.263503 -0.051372 -17.562437 -10.315943 3.024068 1.329934 -17.829195 12.625021 -21.175148 3.394900 0.168441 4.638330 -49.673569 -22.091610 -139.982681 5.000000 43.872253 -5.061664 -10.226597 45.000000 10.283794 -9.271065 0.437899 53.514023 42.290985 8.107753 134.186569 -5.000000 10.392286 5.447770 10.453273 45.000000 -95.542336 22.451616 -25.996382 56.937130 -3.261819 -5.451191 -16.220064 9.846416 -7.009143 -40.032413 0.346628 -39.817947 117.609001 -8.943648 14.566488 -5.644648 -4.753973 19.174768 
-3.481761 27.825157 59.597267 -173.598419 -50.239990 -27.702553 58.375961 -0.486578 2.608840 6.035913 -4.892219 -0.452522 -17.379551 -9.771894 2.835887 1.803416 -16.866991 11.414279 -21.512997 4.994370 0.250931 7.139974 -49.786243 -25.154707 -138.618027 5.000000 42.251961 -1.966574 -11.801359 43.707417 7.886009 -7.958213 0.397134 54.565075 46.428925 11.776822 131.717896 -5.000000 12.719737 3.272161 0.578091 45.000000 -94.928558 23.203337 -26.074804 59.350315 -2.705057 -5.054150 -15.817419 9.697170 -7.748777 -41.246696 0.783345 -39.989014 116.290733 -8.552973 14.664633 -6.367198 -4.695859 19.759373 
-3.236052 26.626816 61.132652 -166.365829 -49.926567 -31.058950 57.477783 -0.417891 2.628819 5.946436 -4.345180 -0.822937 -16.736927 -8.776158 2.437006 2.630903 -15.609823 10.436327 -22.058531 6.821838 0.336932 8.865399 -49.256901 -27.858053 -135.253815 5.000000 38.519459 3.175725 -13.951144 37.319366 5.604607 -7.236719 0.348797 55.928474 50.088058 15.406064 129.486816 -5.000000 14.866397 2.659346 -14.185710 45.000000 -94.015457 23.897213 -26.793512 61.233246 -2.472061 -5.035280 -15.477571 9.874791 -8.105034 -42.632954 0.998645 -39.990009 115.637779 -8.367835 14.717013 -6.947217 -4.913269 20.533094 
-2.992222 25.457359 62.597473 -159.344757 -49.445824 -34.224293 56.659317 -0.281944 2.647838 5.865388 -3.788333 -1.242942 -16.119856 -7.784960 2.071892 3.484063 -14.399331 9.469460 -22.589808 8.641947 0.442643 10.187730 -48.436970 -30.192011 -131.837189 5.000000 34.758080 8.185263 -14.851644 30.716091 3.427642 -6.775493 0.354050 57.854748 53.657974 19.305737 127.014114 -5.000000 16.328108 6.884248 -26.925167 39.673050 -93.105042 24.629927 -27.531227 63.232567 -2.278130 -5.002583 -15.124301 10.029853 -8.496099 -43.962658 1.124584 -39.995018 115.232925 -8.231919 14.724342 -7.315005 -5.184014 21.202957 
-2.746545 24.346769 63.998402 -152.904037 -49.300877 -36.984322 56.254360 0.200065 2.662154 5.924336 -3.133628 -1.945856 -15.601040 -6.880893 1.781915 4.586995 -13.511346 8.397437 -22.975948 10.387663 0.534346 9.661719 -46.292767 -30.789522 -127.674568 5.000000 30.086409 10.087453 -13.812203 23.877857 1.835066 -7.730604 0.424038 60.662762 57.038780 22.874334 122.348267 -5.000000 15.231008 4.401719 -30.000000 41.093319 -92.167114 25.488119 -28.180973 65.785645 -2.145681 -5.333878 -14.603571 10.242772 -8.811645 -44.891663 0.957639 -39.997581 116.047356 -8.386048 14.522628 -6.800760 -5.334863 21.488615 
-2.510489 23.266342 65.307480 -146.566742 -49.073719 -39.667351 55.909016 0.736494 2.660380 6.004252 -2.478969 -2.687483 -15.110361 -5.994389 1.505986 5.729975 -12.672767 7.317348 -23.335556 12.113843 0.627185 8.854259 -43.911331 -31.136616 -123.753113 5.000000 25.704372 11.220969 -12.419458 17.068714 0.358912 -8.950211 0.478823 64.222107 60.281960 26.967888 117.153809 -5.000000 13.413740 -0.113327 -30.000000 45.000000 -91.223450 26.377661 -28.799677 68.414871 -2.021595 -5.702631 -14.026226 10.470419 -9.113782 -45.768116 0.724867 -39.990135 117.090332 -8.591818 14.286253 -6.054383 -5.487036 21.715754 
-2.310293 22.173864 66.489639 -140.747559 -48.587276 -42.430119 55.446613 0.996412 2.259654 6.073497 -2.146669 -3.204786 -14.124344 -5.377976 1.272213 6.978062 -12.052264 6.540370 -24.021847 13.176911 0.684168 6.468886 -40.921387 -29.271383 -121.111916 5.000000 22.488064 8.838450 -11.759572 13.914241 -0.492610 -10.023019 0.526290 67.733070 62.710693 30.619816 111.341911 -5.000000 10.619533 -6.223270 -30.000000 45.000000 -90.099167 27.881433 -28.962416 71.553825 -1.778213 -6.249145 166.447784 169.465134 170.558426 -46.294117 0.540962 -39.995407 118.583557 -8.798802 13.838994 -4.844867 -5.650378 21.895882 
-2.145567 21.079090 67.546692 -135.470810 -47.858360 -45.250263 54.881374 0.940272 1.469169 6.130506 -2.165872 -3.478452 -12.647868 -5.044353 1.062574 8.372392 -11.655207 6.051679 -25.022570 13.547639 0.705606 2.909454 -37.167900 -25.580879 -119.598686 5.000000 20.215879 3.096046 -11.830079 14.378546 -0.698442 -10.949475 0.576012 70.828896 64.368584 33.481693 105.072624 -5.000000 7.245784 -13.029523 -26.978939 45.000000 -88.787140 29.970764 -28.704195 75.193214 -1.484450 -6.950064 -13.093068 10.494317 -9.722743 -46.489864 0.403291 -39.987915 120.559494 -8.993404 13.160629 -3.089991 -5.661121 22.054979 
-1.993389 19.940304 68.498428 -130.397766 -46.929436 -47.878490 54.340633 0.814389 0.628032 6.187361 -2.194834 -3.732604 -11.155379 -4.688406 0.869280 9.776394 -11.303537 5.655236 -26.024073 13.797054 0.727281 -0.433719 -33.221973 -22.143166 -118.288437 5.000000 18.169495 -2.438322 -11.923609 14.771432 -0.837122 -11.875781 0.616338 74.154243 65.755661 36.486446 99.218712 -5.000000 4.270927 -18.153978 -23.138067 45.000000 -87.304230 31.982378 -28.250412 78.811676 -1.097090 -7.558864 -12.686569 10.473122 -9.955490 -46.666687 0.285767 -39.995495 122.536186 -9.188593 12.519216 -1.316356 -5.663832 22.215475 
-1.844245 18.757492 69.365364 -125.844238 -45.655968 -50.075497 53.893303 0.293792 -0.468470 6.239222 -2.379981 -3.879408 -9.499035 -4.273004 0.676919 11.307760 -11.224847 5.705029 -27.063362 13.358222 0.704648 -4.606132 -28.825861 -18.116465 -117.245468 5.000000 16.533472 -6.753123 -12.491461 14.619566 -0.563127 -12.782763 0.665389 76.778748 65.969528 38.271683 95.303627 -5.000000 2.397114 -19.442680 -23.639433 45.000000 -85.222084 33.749569 -27.247564 82.394547 -0.648738 -7.942560 -12.306679 10.112370 -10.151747 -46.489483 0.266977 -39.988625 124.263596 -9.395215 12.070712 0.553693 -5.321557 22.349461 
-1.699898 17.515337 70.147438 -121.541634 -44.228500 -52.035545 53.490238 -0.304110 -1.592273 6.291822 -2.584640 -4.007149 -7.826669 -3.835315 0.501666 12.866629 -11.202922 5.833333 -28.101433 12.802363 0.673757 -8.477089 -24.140596 -14.437796 -116.307709 5.000000 15.030701 -10.853069 -13.189218 14.420314 -0.220060 -13.679997 0.714071 79.230247 65.960670 39.789116 91.793686 -5.000000 0.827498 -20.059177 -25.044947 45.000000 -82.985420 35.418907 -26.053211 85.965141 -0.142428 -8.266962 -11.848229 9.720041 -10.321531 -46.252930 0.239379 -39.984921 125.975121 -9.620894 11.612768 2.453494 -4.874800 22.485460 
-1.556331 16.129890 70.846375 -117.092010 -42.629364 -53.484699 53.319202 -0.826652 -2.479864 6.397205 -2.701587 -4.066167 -6.481080 -3.303385 0.361477 14.078609 -11.069313 6.199111 -28.863832 12.022203 0.631428 -11.694688 -19.779284 -11.899269 -114.802185 5.000000 13.372722 -12.113812 -14.304696 13.068076 0.300025 -14.606503 0.764388 80.994217 64.776909 40.142513 89.806648 -5.000000 -0.011264 -20.013975 -27.204758 45.000000 -80.819084 36.424538 -24.852562 88.971855 0.277787 -8.525679 -11.768359 9.462276 -10.236731 -46.043537 0.342372 -39.991543 127.008049 -9.774151 11.363314 4.289488 -4.365211 22.699224 
-1.416253 14.615733 71.468178 -112.504860 -40.873283 -54.420055 53.357979 -1.245768 -3.124546 6.545676 -2.740599 -4.046642 -5.451748 -2.667578 0.255464 14.934181 -10.852654 6.800541 -29.341516 11.037243 0.578684 -14.449016 -15.839746 -10.305775 -112.696945 5.000000 11.594706 -10.443225 -15.736445 10.449473 0.987607 -15.572036 0.819450 82.045197 62.448975 39.301987 89.298676 -5.000000 -0.235609 -19.164406 -30.000000 45.000000 -78.767395 36.756145 -23.668737 91.431038 0.677280 -8.775642 -12.045997 9.178463 -9.994975 -45.837299 0.597142 -39.989544 127.398422 -9.834997 11.302852 6.123162 -3.854154 23.007404 
